REM DIRINDEX 1\5,1\2\6,1\2\7,1\3\8,1\3\9,1\4\10,1\4\11,1\4\12
REM DIRNAME cjc026,folder01,folder02,folder03,folder04,folder05,folder06,folder07,folder08,folder09,folder10,folder11
TITLE ""
FILE "EJE_DB3000_5th_6C_28.mp3" MP3
  TRACK 01 AUDIO
    TITLE "0:"
    INDEX 01 00:00:00
  TRACK 02 AUDIO
    TITLE "10:cjc026_11226"
    INDEX 01 00:00:10
  TRACK 03 AUDIO
    TITLE "0:"
    INDEX 01 00:01:11
  TRACK 04 AUDIO
    TITLE "11:cjc026_11227"
    INDEX 01 00:01:54
  TRACK 05 AUDIO
    TITLE "0:"
    INDEX 01 00:03:31
  TRACK 06 AUDIO
    TITLE "12:cjc026_11228"
    INDEX 01 00:03:66
  TRACK 07 AUDIO
    TITLE "0:"
    INDEX 01 00:04:69
  TRACK 08 AUDIO
    TITLE "10:cjc026_11229"
    INDEX 01 00:05:38
  TRACK 09 AUDIO
    TITLE "0:"
    INDEX 01 00:06:46
  TRACK 10 AUDIO
    TITLE "11:cjc026_11230"
    INDEX 01 00:07:09
  TRACK 11 AUDIO
    TITLE "0:"
    INDEX 01 00:08:37
  TRACK 12 AUDIO
    TITLE "12:cjc026_11231"
    INDEX 01 00:09:00
  TRACK 13 AUDIO
    TITLE "0:"
    INDEX 01 00:10:06
  TRACK 14 AUDIO
    TITLE "10:cjc026_11232"
    INDEX 01 00:10:46
  TRACK 15 AUDIO
    TITLE "0:"
    INDEX 01 00:11:66
  TRACK 16 AUDIO
    TITLE "11:cjc026_11233"
    INDEX 01 00:12:28
  TRACK 17 AUDIO
    TITLE "0:"
    INDEX 01 00:13:64
  TRACK 18 AUDIO
    TITLE "12:cjc026_11234"
    INDEX 01 00:14:27
  TRACK 19 AUDIO
    TITLE "0:"
    INDEX 01 00:15:49
  TRACK 20 AUDIO
    TITLE "10:cjc026_11235"
    INDEX 01 00:16:09
  TRACK 21 AUDIO
    TITLE "0:"
    INDEX 01 00:17:26
  TRACK 22 AUDIO
    TITLE "11:cjc026_11236"
    INDEX 01 00:17:64
  TRACK 23 AUDIO
    TITLE "0:"
    INDEX 01 00:19:00
  TRACK 24 AUDIO
    TITLE "12:cjc026_11237"
    INDEX 01 00:19:35
  TRACK 25 AUDIO
    TITLE "0:"
    INDEX 01 00:20:52
  TRACK 26 AUDIO
    TITLE "10:cjc026_11238"
    INDEX 01 00:21:12
  TRACK 27 AUDIO
    TITLE "0:"
    INDEX 01 00:22:32
  TRACK 28 AUDIO
    TITLE "11:cjc026_11239"
    INDEX 01 00:22:67
  TRACK 29 AUDIO
    TITLE "0:"
    INDEX 01 00:24:14
  TRACK 30 AUDIO
    TITLE "12:cjc026_11240"
    INDEX 01 00:24:49
  TRACK 31 AUDIO
    TITLE "0:"
    INDEX 01 00:25:66
  TRACK 32 AUDIO
    TITLE "10:cjc026_11241"
    INDEX 01 00:26:26
  TRACK 33 AUDIO
    TITLE "0:"
    INDEX 01 00:27:70
  TRACK 34 AUDIO
    TITLE "11:cjc026_11242"
    INDEX 01 00:28:30
  TRACK 35 AUDIO
    TITLE "0:"
    INDEX 01 00:29:74
  TRACK 36 AUDIO
    TITLE "12:cjc026_11243"
    INDEX 01 00:30:31
  TRACK 37 AUDIO
    TITLE "0:"
    INDEX 01 00:32:00
  TRACK 38 AUDIO
    TITLE "10:cjc026_11244"
    INDEX 01 00:32:35
  TRACK 39 AUDIO
    TITLE "0:"
    INDEX 01 00:34:04
  TRACK 40 AUDIO
    TITLE "11:cjc026_11245"
    INDEX 01 00:34:42
  TRACK 41 AUDIO
    TITLE "0:"
    INDEX 01 00:36:10
  TRACK 42 AUDIO
    TITLE "12:cjc026_11246"
    INDEX 01 00:36:48
  TRACK 43 AUDIO
    TITLE "0:"
    INDEX 01 00:38:14
  TRACK 44 AUDIO
    TITLE "10:cjc026_11247"
    INDEX 01 00:38:52
  TRACK 45 AUDIO
    TITLE "0:"
    INDEX 01 00:40:07
  TRACK 46 AUDIO
    TITLE "11:cjc026_11248"
    INDEX 01 00:40:45
  TRACK 47 AUDIO
    TITLE "0:"
    INDEX 01 00:42:14
  TRACK 48 AUDIO
    TITLE "12:cjc026_11249"
    INDEX 01 00:42:52
  TRACK 49 AUDIO
    TITLE "0:"
    INDEX 01 00:44:04
  TRACK 50 AUDIO
    TITLE "10:cjc026_11250"
    INDEX 01 00:44:42
  TRACK 51 AUDIO
    TITLE "0:"
    INDEX 01 00:45:59
  TRACK 52 AUDIO
    TITLE "11:cjc026_11251"
    INDEX 01 00:46:22
  TRACK 53 AUDIO
    TITLE "0:"
    INDEX 01 00:47:49
  TRACK 54 AUDIO
    TITLE "12:cjc026_11252"
    INDEX 01 00:48:09
  TRACK 55 AUDIO
    TITLE "0:"
    INDEX 01 00:49:29
  TRACK 56 AUDIO
    TITLE "10:cjc026_11253"
    INDEX 01 00:49:64
  TRACK 57 AUDIO
    TITLE "0:"
    INDEX 01 00:51:19
  TRACK 58 AUDIO
    TITLE "11:cjc026_11254"
    INDEX 01 00:51:60
  TRACK 59 AUDIO
    TITLE "0:"
    INDEX 01 00:53:26
  TRACK 60 AUDIO
    TITLE "12:cjc026_11255"
    INDEX 01 00:53:61
  TRACK 61 AUDIO
    TITLE "0:"
    INDEX 01 00:55:16
  TRACK 62 AUDIO
    TITLE "10:cjc026_11256"
    INDEX 01 00:55:54
  TRACK 63 AUDIO
    TITLE "0:"
    INDEX 01 00:57:15
  TRACK 64 AUDIO
    TITLE "11:cjc026_11257"
    INDEX 01 00:57:53
  TRACK 65 AUDIO
    TITLE "0:"
    INDEX 01 00:59:16
  TRACK 66 AUDIO
    TITLE "12:cjc026_11258"
    INDEX 01 00:59:51
  TRACK 67 AUDIO
    TITLE "0:"
    INDEX 01 01:01:12
  TRACK 68 AUDIO
    TITLE "10:cjc026_11259"
    INDEX 01 01:01:50
  TRACK 69 AUDIO
    TITLE "0:"
    INDEX 01 01:03:00
  TRACK 70 AUDIO
    TITLE "11:cjc026_11260"
    INDEX 01 01:03:37
  TRACK 71 AUDIO
    TITLE "0:"
    INDEX 01 01:04:60
  TRACK 72 AUDIO
    TITLE "12:cjc026_11261"
    INDEX 01 01:05:22
  TRACK 73 AUDIO
    TITLE "0:"
    INDEX 01 01:06:47
  TRACK 74 AUDIO
    TITLE "10:cjc026_11262"
    INDEX 01 01:07:07
  TRACK 75 AUDIO
    TITLE "0:"
    INDEX 01 01:08:51
  TRACK 76 AUDIO
    TITLE "11:cjc026_11263"
    INDEX 01 01:09:09
  TRACK 77 AUDIO
    TITLE "0:"
    INDEX 01 01:10:50
  TRACK 78 AUDIO
    TITLE "12:cjc026_11264"
    INDEX 01 01:11:10
  TRACK 79 AUDIO
    TITLE "0:"
    INDEX 01 01:12:51
  TRACK 80 AUDIO
    TITLE "10:cjc026_11265"
    INDEX 01 01:13:11
  TRACK 81 AUDIO
    TITLE "0:"
    INDEX 01 01:14:25
  TRACK 82 AUDIO
    TITLE "11:cjc026_11266"
    INDEX 01 01:14:63
  TRACK 83 AUDIO
    TITLE "0:"
    INDEX 01 01:16:23
  TRACK 84 AUDIO
    TITLE "12:cjc026_11267"
    INDEX 01 01:16:59
  TRACK 85 AUDIO
    TITLE "0:"
    INDEX 01 01:17:70
